<?xml version="1.0" encoding="iso-8859-1"?>
<!-- Generator: Adobe Illustrator 18.0.0, SVG Export Plug-In . SVG Version: 6.00 Build 0)  -->
<!DOCTYPE svg PUBLIC "-//W3C//DTD SVG 1.1//EN" "http://www.w3.org/Graphics/SVG/1.1/DTD/svg11.dtd">
<svg xmlns="http://www.w3.org/2000/svg" xmlns:xlink="http://www.w3.org/1999/xlink" version="1.1" id="Capa_1" x="0px" y="0px" viewBox="0 0 299.355 299.355" style="enable-background:new 0 0 299.355 299.355;" xml:space="preserve" width="512px" height="512px">
<g>
	<path d="M179.475,111.114l47.292-24.26c3.416-1.752,5.564-5.269,5.564-9.108v-67.51C232.331,4.583,227.748,0,222.095,0H77.26   c-5.653,0-10.236,4.583-10.236,10.236v67.51c0,3.839,2.148,7.356,5.564,9.108l47.292,24.26   c-38.66,12.584-66.681,48.96-66.681,91.763c0,53.198,43.28,96.479,96.479,96.479s96.479-43.28,96.479-96.479   C246.156,160.074,218.134,123.698,179.475,111.114z M149.678,259.355c-31.143,0-56.479-25.336-56.479-56.479   s25.336-56.479,56.479-56.479s56.479,25.336,56.479,56.479S180.82,259.355,149.678,259.355z" fill="#1764c2"/>
	<circle cx="149.678" cy="202.877" r="26.985" fill="#1764c2"/>
</g>
<g>
</g>
<g>
</g>
<g>
</g>
<g>
</g>
<g>
</g>
<g>
</g>
<g>
</g>
<g>
</g>
<g>
</g>
<g>
</g>
<g>
</g>
<g>
</g>
<g>
</g>
<g>
</g>
<g>
</g>
</svg>
